<mxfile host="65bd71144e">
    <diagram id="qziTJ5_57RFXCWWp7c-v" name="Page-1">
        <mxGraphModel dx="2853" dy="1271" grid="1" gridSize="10" guides="1" tooltips="1" connect="1" arrows="1" fold="1" page="1" pageScale="1" pageWidth="827" pageHeight="1169" math="0" shadow="0">
            <root>
                <mxCell id="0"/>
                <mxCell id="1" parent="0"/>
                <mxCell id="2" value="" style="rounded=1;whiteSpace=wrap;html=1;strokeWidth=2;arcSize=2;" vertex="1" parent="1">
                    <mxGeometry x="40" y="40" width="760" height="850" as="geometry"/>
                </mxCell>
            </root>
        </mxGraphModel>
    </diagram>
</mxfile>